<?xml version="1.0" standalone="no"?>
<!DOCTYPE svg PUBLIC "-//W3C//DTD SVG 20010904//EN"
 "http://www.w3.org/TR/2001/REC-SVG-20010904/DTD/svg10.dtd">
<svg version="1.0" xmlns="http://www.w3.org/2000/svg"
 width="200.000000pt" height="200.000000pt" viewBox="0 0 200.000000 200.000000"
 preserveAspectRatio="xMidYMid meet">
<metadata>
Created by potrace 1.11, written by Peter Selinger 2001-2013
</metadata>
<g transform="translate(0.000000,200.000000) scale(0.100000,-0.100000)"
fill="#000000" stroke="none">
<path d="M845 1725 c-157 -33 -299 -161 -351 -315 -13 -40 -24 -81 -24 -93 0
-27 8 -18 14 16 7 42 27 100 39 115 5 6 6 12 2 12 -11 0 51 81 101 132 152
154 414 176 594 51 62 -44 142 -138 170 -201 23 -51 40 -138 40 -202 0 -82
-50 -231 -87 -262 -8 -6 -2 12 12 40 31 63 42 118 39 200 -6 147 -87 281 -216
359 -94 57 -226 77 -328 50 -247 -64 -397 -340 -310 -569 18 -49 30 -70 77
-138 9 -14 0 -7 -20 15 -72 80 -116 194 -119 309 0 25 -4 46 -8 46 -11 0 -3
-100 12 -165 28 -122 133 -251 256 -314 113 -57 267 -66 384 -21 67 25 181
107 172 122 -4 6 -2 8 3 5 14 -9 37 19 27 34 -4 8 -3 9 4 5 16 -10 61 64 87
142 65 200 -2 412 -170 542 -107 82 -262 115 -400 85z"/>
<path d="M925 717 c-24 -18 -12 -36 20 -29 23 4 25 1 26 -34 1 -39 1 -39 10
-9 7 25 8 22 4 -15 -2 -25 -7 -55 -10 -65 -3 -11 6 4 20 34 14 29 23 56 20 59
-8 9 16 32 34 31 10 0 6 -4 -9 -10 -14 -6 -20 -13 -14 -17 6 -4 10 -33 10 -66
-1 -52 2 -60 24 -74 17 -11 21 -12 13 -2 -7 8 -13 25 -14 40 0 23 -1 23 -10 5
-7 -14 -8 -6 -4 29 3 27 5 55 5 62 0 8 5 14 11 14 5 0 8 -4 4 -9 -3 -5 0 -13
6 -17 7 -4 9 -22 5 -48 l-6 -41 16 35 c27 60 19 124 -17 135 -23 8 -59 -2 -59
-17 0 -6 7 -5 18 3 15 13 16 12 3 -4 -13 -17 -15 -17 -36 3 -25 23 -44 25 -70
7z m25 -7 c-8 -5 -19 -10 -25 -10 -5 0 -3 5 5 10 8 5 20 10 25 10 6 0 3 -5 -5
-10z m124 -6 c9 -8 16 -25 16 -36 0 -23 -10 -19 -14 5 -1 8 -8 22 -15 31 -17
21 -7 21 13 0z m-86 -19 c-3 -3 -9 2 -12 12 -6 14 -5 15 5 6 7 -7 10 -15 7
-18z"/>
<path d="M1159 713 c-8 -9 -15 -43 -15 -81 -1 -54 -5 -69 -22 -83 -23 -18 -20
-31 5 -22 8 3 18 0 23 -7 5 -9 13 -6 29 11 17 19 21 35 21 91 0 54 3 68 15 68
8 0 15 5 15 10 0 6 -3 9 -7 8 -5 -1 -18 3 -29 10 -18 9 -24 9 -35 -5z m27
-113 c-2 -55 -14 -74 -39 -64 -15 5 -15 8 -2 21 8 8 15 24 16 36 0 21 1 21 9
2 8 -18 9 -17 9 7 1 22 -2 26 -16 21 -15 -6 -16 -5 -3 10 24 26 29 20 26 -33z"/>
<path d="M734 693 c-16 -20 -23 -23 -29 -13 -6 9 -4 11 5 5 9 -5 11 -4 6 4
-18 28 -66 -46 -68 -106 -1 -26 5 -41 21 -54 21 -17 25 -17 51 -4 28 14 29 14
24 -10 -2 -13 -9 -36 -14 -51 -6 -15 -8 -29 -5 -32 7 -8 35 64 36 95 l1 28 8
-30 7 -30 8 38 c4 21 10 36 12 33 8 -8 -18 -108 -35 -138 -13 -21 -23 -28 -47
-27 -26 1 -27 2 -7 7 21 7 20 8 -11 17 -26 9 -34 8 -34 -2 0 -7 2 -11 5 -9 2
2 12 -4 23 -15 24 -24 56 -13 86 30 18 27 24 54 38 166 1 6 -4 16 -9 24 -8 11
-8 13 2 7 8 -5 12 1 11 21 -1 33 -17 79 -18 51 -1 -9 -6 -20 -13 -24 -8 -5 -9
-1 -5 12 8 22 -23 -13 -50 -58 -10 -16 -21 -28 -25 -28 -12 0 13 52 39 81 13
14 23 28 23 32 0 14 -15 5 -36 -20z m-33 -60 c-12 -20 -14 -14 -5 12 4 9 9 14
11 11 3 -2 0 -13 -6 -23z m84 -2 c-6 -5 -25 10 -25 20 0 5 6 4 14 -3 8 -7 12
-15 11 -17z m-35 -50 c-15 -38 -54 -59 -75 -41 -8 7 -15 20 -14 29 0 11 3 9 9
-6 5 -13 15 -23 22 -23 9 0 9 3 0 12 -7 7 -11 23 -11 38 1 24 2 24 8 -4 l6
-30 30 37 c32 39 44 33 25 -12z m-83 17 c-3 -8 -6 -5 -6 6 -1 11 2 17 5 13 3
-3 4 -12 1 -19z m110 0 c-3 -8 -6 -5 -6 6 -1 11 2 17 5 13 3 -3 4 -12 1 -19z"/>
<path d="M821 704 c0 -11 3 -14 6 -6 3 7 2 16 -1 19 -3 4 -6 -2 -5 -13z"/>
<path d="M847 650 c-20 -80 -13 -130 17 -130 10 0 13 6 10 15 -4 8 -2 15 2 15
5 0 15 19 22 42 14 45 29 68 43 68 5 0 7 -6 4 -12 -9 -28 -12 -88 -5 -88 5 0
6 -9 3 -20 -4 -15 0 -20 13 -20 12 0 15 3 8 8 -8 4 -11 33 -9 80 3 64 1 72
-13 68 -19 -6 -46 11 -55 34 -3 8 -6 -1 -8 -20 l-2 -35 -6 35 c-6 33 -7 31
-24 -40z m38 -43 c-8 -26 -18 -54 -23 -63 -16 -28 -20 38 -5 77 7 19 11 24 9
12 -6 -32 10 -29 18 3 4 15 9 24 11 22 2 -2 -2 -25 -10 -51z"/>
<path d="M720 699 c0 -5 5 -7 10 -4 6 3 10 8 10 11 0 2 -4 4 -10 4 -5 0 -10
-5 -10 -11z"/>
</g>
</svg>
